/* XPM */
static const char *ProyectoFinalFrm_fantasmaIcon_XPM[]={
/* ProyectoFinalFrm_fantasmaIcon */
"25 25 8 1",
"      c None",
"0     c #D40000",
"1     c #FFFFFF",
"2     c #FAFFFF",
"3     c #2095F2",
"4     c #B1D8F2",
"5     c #ACD2F1",
"6     c #80426C",
"         0000000         ",
"         0000000         ",
"         0000000         ",
"      0000000000000      ",
"   0000000000000000000   ",
"  000001111000000011110  ",
"  000001111000000011110  ",
"  0000111111000011111111 ",
"  0000111222000011122221 ",
"  0000111333000011133334 ",
"  0000111333000011133335 ",
"0000001113330000111333360",
"0000000111100000001111000",
"0000000111100000001111000",
"0000000000000000000000000",
"0000000000000000000000000",
"0000000000000000000000000",
"0000000000000000000000000",
"0000000000000000000000000",
"0000000000000000000000000",
"0000000000000000000000000",
"000   0000000000000   000",
"0      0000   0000      0",
"0      0000   0000      0",
"0      0000   0000      0"};

