/* XPM */
static const char *ProyectoFinalFrm_Fruta_XPM[]={
/* ProyectoFinalFrm_Fruta */
"25 25 5 1",
"      c None",
"0     c #22B14C",
"1     c #000000",
"2     c #A81818",
"3     c #A81919",
"                  000    ",
"                  000    ",
"                00000    ",
"              0000000    ",
"            0000  00     ",
"           000    0      ",
"         000      0      ",
"        000       0      ",
"       00         0      ",
"      00          0      ",
"    11111         0      ",
"  112222211       0      ",
" 122  222221      0      ",
" 122  222221    11111    ",
" 12222222221   1333331   ",
" 12222222221  113333311  ",
" 12222222221 133  333331 ",
" 12222222221 133  333331 ",
"  112222211  13333333331 ",
"   1222221   13333333331 ",
"    11111    13333333331 ",
"              113333311  ",
"               1333331   ",
"                11111    ",
"                         "};

