/* XPM */
static const char *ProyectoFinalFrm_PacmanIcon_XPM[]={
/* ProyectoFinalFrm_PacmanIcon */
"25 25 5 1",
"      c None",
"0     c #FDF100",
"1     c #040300",
"2     c #151100",
"3     c #040200",
"                         ",
"                         ",
"           00000         ",
"       0000000000000     ",
"       0000000000000     ",
"     0000000000000000    ",
"    1000000000000000011  ",
"    0000000000000000000  ",
"    0000000000000000     ",
"    0000000000000000     ",
"  000000000000           ",
"  000000000222           ",
"  000000000              ",
"  000000000222           ",
"  000000000000           ",
"    0000000000000000     ",
"    0000000000000000000  ",
"    0000000000000000000  ",
"    1000000000000000031  ",
"     0000000000000000    ",
"       0000000000000     ",
"       0000000000000     ",
"           00000         ",
"                         ",
"                         "};

